<svg xmlns="http://www.w3.org/2000/svg" viewBox="0 0 24 24" fill="none">
  <!-- Yeşil kare arka plan -->
  <rect width="24" height="24" rx="4" fill="#0F2F28"/>
  <!-- Beyaz diş ikonu - 2/3 boyutunda, ortalanmış -->
  <g transform="translate(4, 4) scale(0.67)">
    <path d="M7 2c-2.5 0-4 2.5-4 5.5c0 2.5 1.5 4.5 1.5 6.5c0 3.5 2.5 6 4.5 6s2.5-3 3-3s1 3 3 3s4.5-2.5 4.5-6c0-2 1.5-4 1.5-6.5C21 4.5 19.5 2 17 2c-2.5 0-3 2.5-3 2.5S13.5 2 11 2s-3 2.5-3 2.5S7.5 2 7 2z" fill="#FFFFFF" stroke="#FFFFFF" stroke-width="1.5" stroke-linecap="round" stroke-linejoin="round"/>
  </g>
</svg>

